<svg version="1.1" id="Layer_1" xmlns="http://www.w3.org/2000/svg" xmlns:xlink="http://www.w3.org/1999/xlink" x="0px" y="0px"
	 width="100%" viewBox="0 0 256 256" enable-background="new 0 0 256 256" xml:space="preserve">
<path fill="#FFFFFF" opacity="1.000000" stroke="none" 
	d="
M257.000000,153.000000 
	C257.000000,187.633957 257.000000,222.267929 257.000000,256.950928 
	C171.779907,256.950928 86.559784,256.950928 1.000000,256.950928 
	C1.000000,222.646515 1.000000,188.291916 1.320640,153.589996 
	C6.177644,156.526169 10.755865,159.753586 15.243670,163.102173 
	C47.357433,187.064041 79.433037,211.077133 111.575813,234.999969 
	C116.274536,238.497070 121.265480,241.601532 126.122375,244.914139 
	C126.123543,244.940598 126.083527,244.905960 126.137024,245.167847 
	C126.486633,245.602859 126.782753,245.775970 127.043930,245.971878 
	C127.008972,245.994675 127.048752,245.921310 127.130157,246.186188 
	C127.541679,246.571716 127.871803,246.692383 128.414093,246.831818 
	C128.626282,246.850586 129.023849,246.697525 129.202927,246.769867 
	C129.382004,246.842224 129.767456,246.817093 130.068954,246.850830 
	C130.569214,246.564957 130.767990,246.245346 130.979843,245.959015 
	C130.992920,245.992294 130.927292,245.963867 131.209656,245.926300 
	C131.640579,245.563400 131.789139,245.238098 131.950043,244.958710 
	C131.962387,245.004639 131.902420,244.930786 132.265640,244.949173 
	C144.824127,235.961380 157.040619,226.983765 169.209900,217.942612 
	C189.266327,203.041641 209.271362,188.071426 229.340408,173.187515 
	C238.508301,166.388275 247.777008,159.724945 257.000000,153.000000 
z"/>
<path fill="#5EF966" opacity="1.000000" stroke="none" 
	d="
M129.023849,246.697525 
	C129.023849,246.697525 128.626282,246.850586 128.284958,246.604736 
	C127.645348,246.213013 127.347046,246.067169 127.048752,245.921310 
	C127.048752,245.921310 127.008972,245.994675 127.001892,245.699158 
	C126.691055,245.237747 126.387291,245.071854 126.083527,244.905975 
	C126.083527,244.905960 126.123543,244.940598 126.134911,244.559494 
	C122.728195,239.284576 119.427147,234.304016 115.873749,229.510513 
	C83.520927,185.866837 51.153053,142.234192 18.713083,98.655289 
	C12.990725,90.968040 6.913402,83.545036 1.000001,76.000000 
	C1.000000,58.979103 1.000000,41.958210 1.223282,24.348621 
	C1.608691,23.807642 1.770818,23.855356 2.038964,24.240843 
	C2.686733,25.417286 3.178225,26.293818 3.777422,27.089211 
	C39.518074,74.532356 75.245148,121.985779 111.038925,169.388824 
	C116.832413,177.061340 122.925934,184.507294 128.930130,192.272064 
	C128.979492,192.486130 129.096207,192.909744 129.059906,193.382797 
	C129.023682,211.469742 129.023773,229.083633 129.023849,246.697525 
z"/>
<path fill="#01CB01" opacity="1.000000" stroke="none" 
	d="
M129.202927,246.769867 
	C129.023773,229.083633 129.023682,211.469742 129.301422,193.175522 
	C162.574417,148.677933 195.591003,104.876778 228.551041,61.033108 
	C237.828430,48.692257 246.939865,36.226654 256.380829,23.694403 
	C256.756134,23.713690 256.878052,23.856844 257.000000,24.000000 
	C257.000000,41.020893 257.000000,58.041790 256.659912,75.582039 
	C255.878204,76.597290 255.395142,77.062439 255.000778,77.593460 
	C216.925949,128.859375 178.839935,180.117020 140.821762,231.424942 
	C137.614487,235.753372 134.864746,240.420837 131.902435,244.930786 
	C131.902420,244.930786 131.962387,245.004639 131.637039,244.932343 
	C131.183563,245.227982 131.055435,245.595932 130.927292,245.963867 
	C130.927292,245.963867 130.992920,245.992294 130.695465,245.940353 
	C130.187836,246.197968 129.977646,246.507523 129.767456,246.817093 
	C129.767456,246.817093 129.382004,246.842224 129.202927,246.769867 
z"/>
<path fill="#B7B7B7" opacity="1.000000" stroke="none" 
	d="
M1.000001,76.468658 
	C6.913402,83.545036 12.990725,90.968040 18.713083,98.655289 
	C51.153053,142.234192 83.520927,185.866837 115.873749,229.510513 
	C119.427147,234.304016 122.728195,239.284576 126.133743,244.533035 
	C121.265480,241.601532 116.274536,238.497070 111.575813,234.999969 
	C79.433037,211.077133 47.357433,187.064041 15.243670,163.102173 
	C10.755865,159.753586 6.177644,156.526169 1.320640,153.121338 
	C1.000000,127.645775 1.000000,102.291542 1.000001,76.468658 
z"/>
<path fill="#7B7C7B" opacity="1.000000" stroke="none" 
	d="
M132.265656,244.949188 
	C134.864746,240.420837 137.614487,235.753372 140.821762,231.424942 
	C178.839935,180.117020 216.925949,128.859375 255.000778,77.593460 
	C255.395142,77.062439 255.878204,76.597290 256.659912,76.050697 
	C257.000000,101.354225 257.000000,126.708458 257.000000,152.531342 
	C247.777008,159.724945 238.508301,166.388275 229.340408,173.187515 
	C209.271362,188.071426 189.266327,203.041641 169.209900,217.942612 
	C157.040619,226.983765 144.824127,235.961380 132.265656,244.949188 
z"/>
<path fill="#FFFFFF" opacity="1.000000" stroke="none" 
	d="
M257.000000,23.531263 
	C256.878052,23.856844 256.756134,23.713690 255.947479,23.691648 
	C253.842896,23.888557 252.425095,23.964354 250.923264,23.644245 
	C249.348221,22.832472 247.879883,22.199675 246.361954,22.040947 
	C241.589813,21.541925 236.792130,21.290577 232.016785,20.817802 
	C219.523636,19.580936 207.039673,18.251385 194.546951,17.010012 
	C186.648117,16.225119 178.737045,15.563825 170.836960,14.790773 
	C158.177200,13.551972 145.542297,11.585578 132.858734,11.208073 
	C121.981606,10.884332 111.044189,12.262991 100.146584,13.067123 
	C93.225792,13.577807 86.323509,14.363615 79.422813,15.116754 
	C67.930283,16.371044 56.458286,17.825842 44.954288,18.959175 
	C33.107246,20.126301 21.228897,20.974207 9.376683,22.093481 
	C8.532449,22.173208 7.790326,23.334217 6.580054,24.005959 
	C4.750571,23.980667 3.341758,23.941870 1.932944,23.903070 
	C1.770818,23.855356 1.608691,23.807642 1.223282,23.879963 
	C1.000000,16.344456 1.000000,8.688911 1.000004,1.040311 
	C86.333344,1.047254 171.666687,1.047254 257.000000,1.047254 
	C257.000000,8.417181 257.000000,15.739854 257.000000,23.531263 
z"/>
<path fill="#B7B7B7" opacity="1.000000" stroke="none" 
	d="
M126.137016,245.167862 
	C126.387291,245.071854 126.691055,245.237747 127.036850,245.676361 
	C126.782753,245.775970 126.486633,245.602859 126.137016,245.167862 
z"/>
<path fill="#7B7C7B" opacity="1.000000" stroke="none" 
	d="
M131.209656,245.926300 
	C131.055435,245.595932 131.183563,245.227982 131.624695,244.886414 
	C131.789139,245.238098 131.640579,245.563400 131.209656,245.926300 
z"/>
<path fill="#B7B7B7" opacity="1.000000" stroke="none" 
	d="
M127.130157,246.186188 
	C127.347046,246.067169 127.645348,246.213013 128.072784,246.585953 
	C127.871803,246.692383 127.541679,246.571716 127.130157,246.186188 
z"/>
<path fill="#7B7C7B" opacity="1.000000" stroke="none" 
	d="
M130.068939,246.850830 
	C129.977646,246.507523 130.187836,246.197968 130.682404,245.907074 
	C130.767990,246.245346 130.569214,246.564957 130.068939,246.850830 
z"/>
<path fill="#7C7C7C" opacity="1.000000" stroke="none" 
	d="
M251.007278,24.040150 
	C252.425095,23.964354 253.842896,23.888557 255.694061,23.815516 
	C246.939865,36.226654 237.828430,48.692257 228.551041,61.033108 
	C195.591003,104.876778 162.574417,148.677933 129.337738,192.702469 
	C129.096207,192.909744 128.979492,192.486130 128.973892,191.797699 
	C128.990143,142.085358 129.011978,93.061470 129.429993,43.949192 
	C158.648560,39.243263 187.476944,34.662659 216.290421,29.990061 
	C227.879547,28.110683 239.435974,26.029491 251.007278,24.040150 
z"/>
<path fill="#B7B7B7" opacity="1.000000" stroke="none" 
	d="
M129.033829,44.037579 
	C129.011978,93.061470 128.990143,142.085358 128.924530,191.583618 
	C122.925934,184.507294 116.832413,177.061340 111.038925,169.388824 
	C75.245148,121.985779 39.518074,74.532356 3.777422,27.089211 
	C3.178225,26.293818 2.686733,25.417286 2.038964,24.240843 
	C3.341758,23.941870 4.750571,23.980667 6.858684,24.279644 
	C48.049931,31.039074 88.541878,37.538326 129.033829,44.037579 
z"/>
<path fill="#F3F3F3" opacity="1.000000" stroke="none" 
	d="
M129.429993,43.949192 
	C88.541878,37.538326 48.049931,31.039074 7.279353,24.266140 
	C7.790326,23.334217 8.532449,22.173208 9.376683,22.093481 
	C21.228897,20.974207 33.107246,20.126301 44.954288,18.959175 
	C56.458286,17.825842 67.930283,16.371044 79.422813,15.116754 
	C86.323509,14.363615 93.225792,13.577807 100.146584,13.067123 
	C111.044189,12.262991 121.981606,10.884332 132.858734,11.208073 
	C145.542297,11.585578 158.177200,13.551972 170.836960,14.790773 
	C178.737045,15.563825 186.648117,16.225119 194.546951,17.010012 
	C207.039673,18.251385 219.523636,19.580936 232.016785,20.817802 
	C236.792130,21.290577 241.589813,21.541925 246.361954,22.040947 
	C247.879883,22.199675 249.348221,22.832472 250.923264,23.644245 
	C239.435974,26.029491 227.879547,28.110683 216.290421,29.990061 
	C187.476944,34.662659 158.648560,39.243263 129.429993,43.949192 
z"/>
</svg>