<?xml version="1.0" standalone="no"?>
<!DOCTYPE svg PUBLIC "-//W3C//DTD SVG 20010904//EN"
 "http://www.w3.org/TR/2001/REC-SVG-20010904/DTD/svg10.dtd">
<svg version="1.0" xmlns="http://www.w3.org/2000/svg"
 width="48.000000pt" height="48.000000pt" viewBox="0 0 48.000000 48.000000"
 preserveAspectRatio="xMidYMid meet">

<g transform="translate(0.000000,48.000000) scale(0.100000,-0.100000)"
fill="#000000" stroke="none">
<path d="M113 293 c59 -77 112 -145 119 -151 10 -8 39 24 126 139 128 169 129
159 -27 133 -82 -15 -109 -15 -186 -5 -50 7 -101 15 -114 18 -20 5 -4 -20 82
-134z"/>
<path d="M0 268 l0 -66 93 -69 c50 -38 98 -73 106 -77 11 -7 -103 153 -181
253 l-18 24 0 -65z"/>
<path d="M351 179 c-61 -83 -105 -147 -98 -142 8 4 60 42 115 83 l101 75 1 68
c0 37 -1 67 -3 67 -2 0 -54 -68 -116 -151z"/>
</g>
</svg>
