<svg width="128" height="128" viewBox="0 0 128 128" fill="none" xmlns="http://www.w3.org/2000/svg">
<path d="M5.72935 81.3333C5.70816 83.2135 6.18355 85.0981 7.15556 86.7832L20.1604 109.33C22.0653 112.632 25.5878 114.667 29.4002 114.667H98.5997C102.412 114.667 105.935 112.632 107.839 109.33L120.844 86.7832C121.816 85.0981 122.292 83.2135 122.271 81.3333H5.72935Z" fill="#4285F4"/>
<path d="M103.978 113.212L45.6424 12.1721C47.2673 11.2031 49.1484 10.6667 51.1058 10.6667H76.8942C80.705 10.6667 84.2263 12.6997 86.1318 16L120.842 76.1203C122.747 79.4192 122.748 83.4835 120.844 86.7832L107.839 109.33C106.896 110.966 105.554 112.291 103.978 113.212Z" fill="#FBBC04"/>
<path d="M82.3576 12.1721C80.7327 11.2031 78.8516 10.6667 76.8941 10.6667H51.1058C47.295 10.6667 43.7736 12.6997 41.8682 16L7.15773 76.1203C5.25309 79.4193 5.25226 83.4835 7.15556 86.7832L20.1604 109.33C21.1044 110.966 22.4455 112.291 24.0223 113.212L82.3576 12.1721Z" fill="#34A853"/>
<path d="M122.271 81.3333C122.292 83.2135 121.816 85.0981 120.844 86.7832L107.839 109.33C106.896 110.966 105.554 112.291 103.978 113.212L85.5726 81.3333H122.271Z" fill="#EA4335"/>
<path d="M82.3576 12.1721C80.7327 11.2031 78.8516 10.6667 76.8941 10.6667H51.1058C49.1484 10.6667 47.2673 11.2031 45.6424 12.1721L64 43.9684L82.3576 12.1721Z" fill="#188038"/>
<path d="M5.72935 81.3333C5.70816 83.2135 6.18355 85.0981 7.15556 86.7832L20.1604 109.33C21.1044 110.966 22.4455 112.291 24.0223 113.212L42.4273 81.3333H5.72935Z" fill="#1967D2"/>
</svg>
