<svg width="239" height="241" viewBox="0 0 239 241" fill="none" xmlns="http://www.w3.org/2000/svg">
<path d="M37.9902 240.735V0H164.86V76.9714H238.912V240.735H37.9902Z" fill="#F3F3F3"/>
<path d="M174.415 67.4163V0L238.912 67.4163H174.415Z" fill="#8D8D8D"/>
<rect x="37.9902" y="151.819" width="200.656" height="89.1806" fill="#00FD4B"/>
<path d="M123.224 219.345L110.549 172.992H116.253L125.94 210.744H126.393L136.261 172.992H142.598L152.466 210.744H152.919L162.606 172.992H168.31L155.635 219.345H149.841L139.611 182.407H139.249L129.018 219.345H123.224Z" fill="#21262D"/>
<path d="M83.2988 219.345H68.9945V172.992H83.9325C88.429 172.992 92.2767 173.92 95.4755 175.776C98.6744 177.617 101.126 180.265 102.831 183.72C104.536 187.16 105.389 191.28 105.389 196.078C105.389 200.906 104.529 205.063 102.809 208.549C101.089 212.019 98.5839 214.69 95.2945 216.561C92.0051 218.417 88.0065 219.345 83.2988 219.345ZM74.6076 214.366H82.9367C86.7692 214.366 89.9455 213.626 92.4653 212.148C94.9852 210.669 96.8637 208.564 98.101 205.833C99.3383 203.102 99.9569 199.85 99.9569 196.078C99.9569 192.336 99.3458 189.114 98.1236 186.413C96.9014 183.697 95.0757 181.615 92.6464 180.167C90.2171 178.703 87.1917 177.971 83.5704 177.971H74.6076V214.366Z" fill="#21262D"/>
<path d="M177 219V173H195V181.019H182.748V191.979H193.805V199.998H182.748V219H177Z" fill="#21262D"/>
<path d="M75.2217 48.5088L37.6102 74.9606L3.05176e-05 48.5088L37.6102 44.8134L75.2217 48.5088Z" fill="#F3F3F3"/>
<path d="M75.2216 48.6189V86.0448L37.7571 113.889V54.5674L75.2216 48.6189Z" fill="#8E8E8E"/>
<path d="M6.10352e-05 48.6182V86.044L37.7572 113.888V54.5666L6.10352e-05 48.6182Z" fill="#BCBCBC"/>
<path d="M6.10352e-05 48.6182V63.505L37.7572 113.888V98.2713L6.10352e-05 48.6182Z" fill="#55FF69"/>
<path d="M75.2216 48.6189V63.5058L37.7571 113.889V98.2721L75.2216 48.6189Z" fill="#11CC22"/>
</svg>
