<svg width="32" height="32" viewBox="0 0 32 32" fill="none" xmlns="http://www.w3.org/2000/svg">
<path d="M18.2695 18.0564L25.1759 11.1457L19.4988 5.45108L17.6796 7.24741L15.4331 5.04039C15.4587 5.00401 15.4864 4.96911 15.5159 4.93584C16.2472 4.20401 16.9649 3.45766 17.7152 2.74583C18.773 1.74287 20.2807 1.75237 21.322 2.76884C22.6295 4.04593 23.915 5.34453 25.2116 6.63213C26.0823 7.49653 26.9429 8.37043 27.8307 9.21682C28.9562 10.2898 28.8674 12.0751 27.8442 13.0686C26.0721 14.7884 24.3228 16.532 22.5964 18.2995C21.6294 19.2885 20.2837 19.4471 19.3072 18.8668C18.9471 18.6517 18.6396 18.3495 18.2695 18.0564Z" fill="#DD0022"/>
<path d="M12.7563 12.9635L5.86085 19.8597L11.5701 25.5944C11.8971 25.2472 12.2191 24.9001 12.5472 24.5584C12.7668 24.3298 12.9986 24.1127 13.2177 23.8841C13.3236 23.7735 13.4053 23.748 13.5272 23.8711C14.1669 24.5177 14.8105 25.1602 15.4582 25.7985C15.5776 25.917 15.5861 26.0086 15.4582 26.1316C14.6888 26.8845 13.94 27.6583 13.156 28.3952C12.2808 29.2181 10.7345 29.199 9.8297 28.3522C9.07435 27.6453 8.35411 26.9015 7.61983 26.1721C6.15661 24.7201 4.69422 23.2675 3.23268 21.8141C2.07207 20.6601 2.07608 19.0579 3.2372 17.9038C4.98998 16.1617 6.74059 14.4179 8.48903 12.6724C9.64262 11.5219 11.2291 11.5159 12.3967 12.6569C12.498 12.7564 12.6119 12.8415 12.7563 12.9635Z" fill="#AB007A"/>
<path d="M18.0753 12.746C17.628 12.2958 17.2292 11.8956 16.8285 11.4954C14.9914 9.66321 13.1545 7.83036 11.3178 5.99685C11.1719 5.85028 11.0866 5.84678 10.9381 5.99685C9.18235 7.75666 7.42221 9.51281 5.65773 11.2653C5.39039 11.5314 5.38939 11.5329 5.66123 11.8025C6.09408 12.2312 6.52894 12.6574 6.96178 13.0861C7.05507 13.1787 7.14234 13.2777 7.22209 13.3628L5.00168 15.5928C4.67617 15.2751 4.34314 14.9535 4.01461 14.6278C3.59381 14.2106 3.1765 13.7905 2.7572 13.3718C1.74656 12.3628 1.74355 10.6995 2.76774 9.67605C4.96256 7.48137 7.16207 5.29185 9.36626 3.10751C10.2992 2.18208 11.9342 2.16057 12.8742 3.0815C14.5133 4.68724 16.1343 6.31349 17.7599 7.93074C17.9785 8.14834 18.1962 8.36744 18.4164 8.58404C18.9051 9.06223 19.1887 9.71089 19.2074 10.3934C19.2261 11.076 18.9785 11.7391 18.5167 12.2432C18.3753 12.4028 18.2343 12.5654 18.0753 12.746Z" fill="#004D95"/>
<path d="M12.9689 18.3776C13.7158 19.1079 14.4495 19.8238 15.1823 20.5411C15.5159 20.8678 15.8509 21.1914 16.1804 21.5246C17.2217 22.571 18.2621 23.6185 19.3016 24.667C19.4486 24.8171 19.6121 24.9461 19.7621 25.0907C19.8804 25.2053 19.9627 25.1757 20.074 25.0657C20.9322 24.2153 21.8024 23.3754 22.6586 22.5225C23.5985 21.5866 24.5249 20.6377 25.4673 19.7012C25.6404 19.5291 25.6273 19.4046 25.4608 19.245C24.9728 18.7778 24.4963 18.2976 24.0063 17.8329C23.8558 17.6898 23.8558 17.5957 24.0063 17.4507C24.6498 16.8209 25.2827 16.1806 25.9202 15.5453C25.9533 15.5188 25.9881 15.4945 26.0246 15.4728C26.3099 15.7529 26.5953 16.03 26.8772 16.3111C27.3672 16.8009 27.8698 17.2786 28.3398 17.7868C29.2722 18.7963 29.2155 20.351 28.2119 21.358C26.981 22.5931 25.7377 23.8156 24.5003 25.0442C23.5534 25.9846 22.626 26.9451 21.6575 27.862C20.6187 28.8459 19.1216 28.8194 18.0859 27.826C17.3666 27.1387 16.6679 26.4288 15.9623 25.7285C14.8678 24.6395 13.791 23.532 12.677 22.4635C11.5144 21.348 11.5907 19.4221 12.9689 18.3776Z" fill="#0192A5"/>
<path d="M12.5712 7.83868L17.7082 12.9986L15.5068 15.2101C15.4617 15.1731 15.4015 15.1321 15.3503 15.0815C14.3098 14.0454 13.2695 13.0089 12.2296 11.9721C11.1568 10.8981 11.1633 9.25784 12.2392 8.18835C12.351 8.07779 12.4553 7.96074 12.5712 7.83868Z" fill="#DD0022"/>
<path d="M7.8465 18.4692L13.0356 13.2793L14.5037 14.7639C14.7043 14.964 14.8994 15.1706 15.1031 15.3687C15.1964 15.4588 15.2275 15.5298 15.1196 15.6363C14.0127 16.7253 12.9378 17.8479 11.7968 18.8993C10.7596 19.8558 9.32108 19.7998 8.27383 18.8533L7.8465 18.4692Z" fill="#004D95"/>
<path d="M18.4089 23.1733C18.1155 22.8732 17.8246 22.5635 17.5246 22.2639C16.1724 20.9146 14.8182 19.5676 13.462 18.223C13.297 18.0599 13.302 17.9654 13.4665 17.8063C14.0965 17.197 14.7174 16.5789 15.3293 15.952C15.4798 15.8019 15.5691 15.8089 15.7135 15.9545C16.7352 16.986 17.7534 18.0214 18.7936 19.0339C19.904 20.1154 19.8223 21.9352 18.7274 22.8677C18.6251 22.9532 18.5353 23.0508 18.4089 23.1733Z" fill="#AB007A"/>
<path d="M23.114 12.6114C23.0806 12.6604 23.044 12.7072 23.0046 12.7515C22.3239 13.4278 21.6427 14.1036 20.9613 14.7789C20.1558 15.5793 19.3407 16.3677 18.5483 17.18C18.0417 17.6988 18.0588 17.7108 17.5482 17.2006C17.0466 16.7003 16.5417 16.2023 16.0335 15.7064C15.892 15.5698 15.8664 15.4723 16.0259 15.3207C16.515 14.8545 16.9894 14.3732 17.4689 13.897C18.0206 13.3503 18.5618 12.7965 19.1201 12.2563C20.2972 11.1192 21.982 11.2218 23.0247 12.4849C23.0558 12.5224 23.0809 12.5634 23.114 12.6114Z" fill="#0192A5"/>
</svg>
