<?xml version="1.0" encoding="utf-8"?>
<svg version="1.1" id="Layer_1" xmlns="http://www.w3.org/2000/svg" x="0px" y="0px" width="100%" viewBox="33.841 2.193 188.631 252.554" enable-background="new 0 0 256 256">
  <path fill="#007728" opacity="1.000000" stroke="none" d=" M42.037300,250.852554 C41.379894,250.076416 40.326618,249.379898 40.151024,248.506866 C39.828175,246.901718 40.003082,245.192657 40.003014,243.526917 C39.999908,167.050339 39.996922,90.573769 40.017811,14.097203 C40.018398,11.947121 40.278309,9.797110 40.994400,7.608341 C47.206303,10.717589 52.776161,13.989208 58.488556,16.989441 C73.296577,24.766829 88.167358,32.424725 103.249977,40.356415 C114.330093,46.385494 125.173317,52.188473 136.328979,58.145775 C161.759125,71.686150 186.892181,85.043549 211.981171,98.483162 C216.821701,101.076126 216.734421,101.750420 212.481750,105.410713 C204.918625,111.920280 197.419556,118.504303 189.618759,125.235855 C172.146469,139.853836 154.956146,154.301575 137.743973,168.723175 C135.242691,170.818924 132.636703,172.789719 129.218979,175.500610 C120.703293,154.208176 112.513962,133.731750 104.324631,113.255325 C103.870499,113.367378 103.416367,113.479431 102.962234,113.591484 C102.962234,115.550606 102.962326,117.509727 102.962212,119.468849 C102.960777,143.270889 102.846146,167.073898 103.047539,190.874222 C103.091003,196.009384 101.473763,199.754913 97.552513,202.958801 C89.823845,209.273514 82.219147,215.744141 74.673866,222.278107 C63.743500,231.743439 52.911346,241.322189 42.037300,250.852554 z"/>
  <path fill="#0D8E2C" opacity="1.000000" stroke="none" d=" M42.502266,250.899841 C52.911346,241.322189 63.743500,231.743439 74.673866,222.278107 C82.219147,215.744141 89.823845,209.273514 97.552513,202.958801 C101.473763,199.754913 103.091003,196.009384 103.047539,190.874222 C102.846146,167.073898 102.960777,143.270889 102.962212,119.468849 C102.962326,117.509727 102.962234,115.550606 102.962234,113.591484 C103.416367,113.479431 103.870499,113.367378 104.324631,113.255325 C112.513962,133.731750 120.703293,154.208176 129.218979,175.500610 C132.636703,172.789719 135.242691,170.818924 137.743973,168.723175 C154.956146,154.301575 172.146469,139.853836 189.814453,125.511063 C192.308182,128.247910 194.244370,130.960526 196.370224,133.515305 C203.483749,142.064072 210.665100,150.556381 217.820465,159.070312 C217.820465,189.370804 217.820465,219.671295 217.820465,250.617508 C215.950882,250.748474 214.208008,250.973770 212.464767,250.976624 C195.975174,251.003616 179.483078,250.840729 162.997620,251.103271 C159.045700,251.166214 157.387909,249.437302 156.141495,246.249069 C147.668457,224.575806 139.159531,202.916534 130.627655,181.266373 C130.148056,180.049377 129.362518,178.952942 128.488525,177.386703 C120.964096,183.791290 113.470238,189.936386 106.316742,196.454987 C104.879608,197.764572 104.124031,200.485184 104.095078,202.569672 C103.903084,216.391663 103.994705,230.217606 103.994057,244.042252 C103.993965,246.028442 103.994041,248.014618 103.994041,250.947128 C83.418716,250.947128 63.192970,250.947128 42.502266,250.899841 z"/>
  <path fill="#006618" opacity="1.000000" stroke="none" d=" M217.870316,158.599396 C210.665100,150.556381 203.483749,142.064072 196.370224,133.515305 C194.244370,130.960526 192.308182,128.247910 190.089386,125.332397 C197.419556,118.504303 204.918625,111.920280 212.481750,105.410713 C216.734421,101.750420 216.821701,101.076126 211.981171,98.483162 C186.892181,85.043549 161.759125,71.686150 136.346573,57.869484 C136.067642,57.254925 136.083572,57.070980 136.099503,56.887032 C146.844147,50.301846 157.632156,43.786114 168.322952,37.114643 C183.100983,27.892574 197.797348,18.539700 212.557297,9.288475 C213.796783,8.511598 215.252655,8.079973 217.355118,7.161588 C217.607254,9.164538 217.968292,10.696215 217.968475,12.227933 C217.973907,60.861446 217.944397,109.494965 217.870316,158.599396 z"/>
  <path fill="#089E2B" opacity="1.000000" stroke="none" d=" M103.013084,40.130318 C88.167358,32.424725 73.296577,24.766829 58.488556,16.989441 C52.776161,13.989208 47.206303,10.717589 41.324955,7.352725 C61.886387,7.196911 82.694366,7.257990 103.648216,8.025635 C103.533752,19.198240 103.273422,29.664278 103.013084,40.130318 z"/>
  <path fill="#0E8C2C" opacity="1.000000" stroke="none" d=" M103.249977,40.356415 C103.273422,29.664278 103.533752,19.198240 103.940529,8.342530 C114.645164,24.065269 125.203362,40.177677 135.930527,56.588562 C136.083572,57.070980 136.067642,57.254925 136.034119,57.715164 C125.173317,52.188473 114.330093,46.385494 103.249977,40.356415 z"/>
</svg>