<svg width="32" height="32" viewBox="0 0 32 32" fill="none" xmlns="http://www.w3.org/2000/svg">
<path d="M26.8 30H5.2C4.88174 30 4.57652 29.8771 4.35147 29.6583C4.12643 29.4395 4 29.1428 4 28.8333V3.16667C4 2.85725 4.12643 2.5605 4.35147 2.34171C4.57652 2.12292 4.88174 2 5.2 2H21.2667L28 8.5V28.8333C28 29.1428 27.8736 29.4395 27.6485 29.6583C27.4235 29.8771 27.1183 30 26.8 30Z" fill="white"/>
<path d="M21.2667 2V8.5H28" fill="white"/>
<path d="M21.2667 2H5.2C4.88174 2 4.57652 2.12292 4.35147 2.34171C4.12643 2.5605 4 2.85725 4 3.16667V28.8333C4 29.1428 4.12643 29.4395 4.35147 29.6583C4.57652 29.8771 4.88174 30 5.2 30H26.8C27.1183 30 27.4235 29.8771 27.6485 29.6583C27.8736 29.4395 28 29.1428 28 28.8333V8.5M21.2667 2L28 8.5M21.2667 2V8.5H28" stroke="black" stroke-width="1.5" stroke-linecap="round" stroke-linejoin="round"/>
<path d="M4.5 21H27.5V28.5C27.5 29.0523 27.0523 29.5 26.5 29.5H5.5C4.94772 29.5 4.5 29.0523 4.5 28.5V21Z" fill="black"/>
<path d="M22.3109 23.0814H23.5557V27.2347C23.5557 27.6186 23.4694 27.9521 23.2969 28.2352C23.1262 28.5182 22.8887 28.7364 22.5843 28.8896C22.2799 29.0427 21.926 29.1193 21.5227 29.1193C21.164 29.1193 20.8383 29.0563 20.5455 28.9303C20.2546 28.8023 20.0239 28.6084 19.8533 28.3486C19.6827 28.0868 19.5983 27.7582 19.6002 27.3626H20.8538C20.8577 27.5197 20.8896 27.6544 20.9498 27.7669C21.0118 27.8774 21.0961 27.9627 21.2028 28.0228C21.3114 28.081 21.4393 28.1101 21.5867 28.1101C21.7418 28.1101 21.8727 28.0771 21.9793 28.0112C22.0879 27.9434 22.1703 27.8445 22.2266 27.7146C22.2828 27.5846 22.3109 27.4247 22.3109 27.2347V23.0814Z" fill="white"/>
<path d="M14.5113 29.0379V23.0814H16.8962C17.3344 23.0814 17.6999 23.1464 17.9926 23.2763C18.2854 23.4062 18.5055 23.5865 18.6528 23.8173C18.8002 24.0461 18.8739 24.3098 18.8739 24.6084C18.8739 24.841 18.8274 25.0456 18.7343 25.222C18.6412 25.3965 18.5132 25.54 18.3504 25.6525C18.1894 25.763 18.0052 25.8415 17.7978 25.8881V25.9462C18.0246 25.9559 18.2369 26.0199 18.4347 26.1382C18.6344 26.2565 18.7963 26.4222 18.9204 26.6355C19.0445 26.8469 19.1066 27.0989 19.1066 27.3917C19.1066 27.7078 19.028 27.9899 18.871 28.2381C18.7159 28.4843 18.4861 28.6792 18.1817 28.8227C17.8773 28.9661 17.5021 29.0379 17.0561 29.0379H14.5113ZM15.7706 28.0083H16.7973C17.1482 28.0083 17.4042 27.9414 17.5651 27.8076C17.726 27.6719 17.8065 27.4916 17.8065 27.2667C17.8065 27.1018 17.7667 26.9564 17.6873 26.8304C17.6078 26.7044 17.4943 26.6055 17.347 26.5337C17.2015 26.462 17.028 26.4261 16.8264 26.4261H15.7706V28.0083ZM15.7706 25.574H16.7042C16.8768 25.574 17.0299 25.5439 17.1637 25.4838C17.2995 25.4217 17.4061 25.3345 17.4837 25.222C17.5632 25.1096 17.6029 24.9748 17.6029 24.8178C17.6029 24.6025 17.5263 24.429 17.3731 24.2972C17.2219 24.1653 17.0067 24.0994 16.7275 24.0994H15.7706V25.574Z" fill="white"/>
<path d="M13.5784 26.0597C13.5784 26.7092 13.4552 27.2618 13.209 27.7175C12.9647 28.1731 12.6312 28.5212 12.2085 28.7616C11.7877 29.0001 11.3146 29.1193 10.7892 29.1193C10.2598 29.1193 9.7848 28.9991 9.36405 28.7587C8.9433 28.5182 8.61077 28.1702 8.36646 27.7146C8.12215 27.2589 8 26.7073 8 26.0597C8 25.4101 8.12215 24.8575 8.36646 24.4019C8.61077 23.9462 8.9433 23.5991 9.36405 23.3606C9.7848 23.1202 10.2598 23 10.7892 23C11.3146 23 11.7877 23.1202 12.2085 23.3606C12.6312 23.5991 12.9647 23.9462 13.209 24.4019C13.4552 24.8575 13.5784 25.4101 13.5784 26.0597ZM12.3016 26.0597C12.3016 25.6389 12.2385 25.2841 12.1125 24.9952C11.9884 24.7063 11.8129 24.4872 11.5861 24.3379C11.3592 24.1886 11.0936 24.1139 10.7892 24.1139C10.4848 24.1139 10.2191 24.1886 9.99227 24.3379C9.76541 24.4872 9.58897 24.7063 9.46294 24.9952C9.33884 25.2841 9.2768 25.6389 9.2768 26.0597C9.2768 26.4804 9.33884 26.8352 9.46294 27.1241C9.58897 27.413 9.76541 27.6321 9.99227 27.7814C10.2191 27.9307 10.4848 28.0054 10.7892 28.0054C11.0936 28.0054 11.3592 27.9307 11.5861 27.7814C11.8129 27.6321 11.9884 27.413 12.1125 27.1241C12.2385 26.8352 12.3016 26.4804 12.3016 26.0597Z" fill="white"/>
<path d="M21 11.1818H14.1818V18H21V11.1818Z" stroke="black" stroke-width="0.8" stroke-linecap="round" stroke-linejoin="round"/>
<path d="M17.8182 8H11V14.8182H17.8182V8Z" stroke="black" stroke-width="0.8" stroke-linecap="round" stroke-linejoin="round"/>
<path d="M17.8182 8L21 11.1818" stroke="black" stroke-width="0.8" stroke-linecap="round" stroke-linejoin="round"/>
<path d="M11 8L14.1818 11.1818" stroke="black" stroke-width="0.8" stroke-linecap="round" stroke-linejoin="round"/>
<path d="M11 14.8182L14.1818 18" stroke="black" stroke-width="0.8" stroke-linecap="round" stroke-linejoin="round"/>
<path d="M17.8182 14.8182L21 18" stroke="black" stroke-width="0.8" stroke-linecap="round" stroke-linejoin="round"/>
</svg>
