<svg width="473" height="484" viewBox="0 0 473 484" fill="none" xmlns="http://www.w3.org/2000/svg">
<path d="M69.2953 483.467V0H324.088V154.581H472.806V483.467H69.2953Z" fill="#F3F3F3"/>
<path d="M343.277 135.392V0L472.806 135.392H343.277Z" fill="#8D8D8D"/>
<rect x="69.2953" y="304.899" width="402.978" height="179.101" fill="#2D66F5"/>
<path d="M313 361.209V344H394.081V361.209H363.856V442.723H343.224V361.209H313Z" fill="white"/>
<path d="M236.67 443.586V344.344H302.379V361.643H257.652V385.291H298.018V402.591H257.652V443.586H236.67Z" fill="white"/>
<path d="M147.119 443.586V344.344H186.273C193.768 344.344 200.165 345.685 205.463 348.366C210.793 351.015 214.847 354.779 217.626 359.657C220.436 364.503 221.842 370.205 221.842 376.763C221.842 383.353 220.42 389.022 217.577 393.771C214.734 398.488 210.615 402.106 205.22 404.626C199.858 407.146 193.364 408.406 185.74 408.406H159.524V391.542H182.348C186.354 391.542 189.682 390.993 192.331 389.895C194.98 388.796 196.95 387.149 198.242 384.952C199.567 382.755 200.229 380.025 200.229 376.763C200.229 373.467 199.567 370.689 198.242 368.428C196.95 366.166 194.963 364.454 192.282 363.291C189.633 362.096 186.289 361.498 182.251 361.498H168.102V443.586H147.119ZM200.714 398.423L225.379 443.586H202.216L178.084 398.423H200.714Z" fill="white"/>
<path d="M76.3324 242.251V73.5598L93.6232 87.0782V242.251H76.3324Z" fill="#2D66F5"/>
<path d="M103.324 242.25L103.413 94.6457L120.107 107.759L120.193 242.25H103.324Z" fill="#2D66F5"/>
<path d="M130.314 242.251V115.311L147.098 128.494L147.183 242.251H130.314Z" fill="#2D66F5"/>
<path d="M53.9811 242.25H0V128.755L53.9811 87.0547V242.25Z" fill="#00299B"/>
<path d="M70.8501 242.25V73.9807L53.981 87.211V242.25H70.8501Z" fill="#2D66F5"/>
<path d="M53.7843 103.122L0 144.831V128.649L53.7843 87.0547V103.122ZM70.8502 96.8009V112.544L53.7843 103.122V87.0589L70.8502 96.8009Z" fill="white"/>
<path d="M53.7843 143.488L0 184.895V168.831L53.7843 127.54V143.488ZM70.8502 137.215V152.845L53.778 143.488V127.546L70.8502 137.215Z" fill="white"/>
<path d="M53.7843 179.453L0 221.164V204.982L53.7843 163.387V179.453ZM70.8502 173.133V188.878L53.778 179.453V163.393L70.8502 173.133Z" fill="white"/>
<path d="M53.7711 199.662L0.059119 241.047L0 241.093V242.25H19.3447H19.3573L53.7732 215.623V199.656L53.7711 199.662ZM53.8323 199.685L53.7795 199.656V215.657L53.8323 215.686L70.8502 225.048V209.36L53.8323 199.685Z" fill="white"/>
<path d="M54.0162 242.25H44.7035L54.0162 235.081V242.25ZM66.6334 242.25H54.0162V235.085L66.6334 242.25Z" fill="white"/>
</svg>
