<svg width="471" height="482" viewBox="0 0 471 482" fill="none" xmlns="http://www.w3.org/2000/svg">
<path d="M68.9331 480.94V0H322.394V153.773H470.335V480.94H68.9331Z" fill="#F3F3F3"/>
<path d="M341.483 134.684V0L470.335 134.684H341.483Z" fill="#8D8D8D"/>
<rect x="68.9331" y="303.304" width="400.871" height="178.165" fill="#2D66F5"/>
<path d="M321.02 362.934V345.725H402.101V362.934H371.876V444.448H351.245V362.934H321.02Z" fill="white"/>
<path d="M241.073 345.725L264.934 420.732H265.85L289.76 345.725H312.898L278.865 444.448H251.967L217.886 345.725H241.073Z" fill="white"/>
<path d="M136.805 444.449V345.725H175.755C183.211 345.725 189.574 347.059 194.844 349.726C200.147 352.361 204.18 356.105 206.943 360.958C209.739 365.778 211.137 371.45 211.137 377.974C211.137 384.53 209.723 390.17 206.895 394.894C204.067 399.586 199.97 403.185 194.603 405.692C189.268 408.199 182.809 409.452 175.225 409.452H149.146V392.677H171.85C175.835 392.677 179.145 392.13 181.781 391.038C184.416 389.945 186.376 388.306 187.662 386.121C188.979 383.935 189.638 381.22 189.638 377.974C189.638 374.696 188.979 371.932 187.662 369.683C186.376 367.433 184.4 365.73 181.732 364.573C179.097 363.384 175.771 362.79 171.754 362.79H157.678V444.449H136.805ZM190.12 399.522L214.656 444.449H191.614L167.608 399.522H190.12Z" fill="white"/>
<path d="M75.9333 240.985V73.1753L93.1338 86.6231V240.985H75.9333Z" fill="#2D66F5"/>
<path d="M102.783 240.984L102.872 94.1506L119.479 107.196L119.564 240.984H102.783Z" fill="#2D66F5"/>
<path d="M129.632 240.983V114.707L146.328 127.821L146.413 240.983H129.632Z" fill="#2D66F5"/>
<path d="M53.6989 240.984H0V128.082L53.6989 86.5994V240.984Z" fill="#00299B"/>
<path d="M70.4799 240.984V73.5942L53.699 86.7554V240.984H70.4799Z" fill="#2D66F5"/>
<path d="M53.5032 102.583L0 144.074V127.977L53.5032 86.5994V102.583ZM70.4799 96.2947V111.955L53.5032 102.583V86.6036L70.4799 96.2947Z" fill="white"/>
<path d="M53.5032 142.738L0 183.928V167.949L53.5032 126.873V142.738ZM70.4799 136.498V152.046L53.4969 142.738V126.88L70.4799 136.498Z" fill="white"/>
<path d="M53.5032 178.514L0 220.007V203.91L53.5032 162.533V178.514ZM70.4799 172.228V187.891L53.4969 178.514V162.539L70.4799 172.228Z" fill="white"/>
<path d="M53.49 198.618L0.05881 239.786L0 239.832V240.983H19.2435H19.2561L53.4921 214.495V198.611L53.49 198.618ZM53.5509 198.641L53.4984 198.611V214.529L53.5509 214.558L70.4799 223.871V208.265L53.5509 198.641Z" fill="white"/>
<path d="M53.7327 240.984H44.4688L53.7327 233.852V240.984ZM66.2839 240.984H53.7327V233.856L66.2839 240.984Z" fill="white"/>
</svg>
