<svg width="32" height="32" viewBox="0 0 32 32" fill="none" xmlns="http://www.w3.org/2000/svg">
<path d="M26.8 30H5.2C4.88174 30 4.57652 29.8771 4.35147 29.6583C4.12643 29.4395 4 29.1428 4 28.8333V3.16667C4 2.85725 4.12643 2.5605 4.35147 2.34171C4.57652 2.12292 4.88174 2 5.2 2H21.2667L28 8.5V28.8333C28 29.1428 27.8736 29.4395 27.6485 29.6583C27.4235 29.8771 27.1183 30 26.8 30Z" fill="white"/>
<path d="M21.2667 2V8.5H28" fill="white"/>
<path d="M21.2667 2H5.2C4.88174 2 4.57652 2.12292 4.35147 2.34171C4.12643 2.5605 4 2.85725 4 3.16667V28.8333C4 29.1428 4.12643 29.4395 4.35147 29.6583C4.57652 29.8771 4.88174 30 5.2 30H26.8C27.1183 30 27.4235 29.8771 27.6485 29.6583C27.8736 29.4395 28 29.1428 28 28.8333V8.5M21.2667 2L28 8.5M21.2667 2V8.5H28" stroke="black" stroke-width="1.5" stroke-linecap="round" stroke-linejoin="round"/>
<path d="M4.5 21H27.5V28.5C27.5 29.0523 27.0523 29.5 26.5 29.5H5.5C4.94772 29.5 4.5 29.0523 4.5 28.5V21Z" fill="black"/>
<path d="M15.9195 8.04838L20.2556 10.4224C20.3175 10.4563 20.3692 10.5061 20.4052 10.5668C20.4413 10.6275 20.4604 10.6967 20.4605 10.7673V15.4798C20.4604 15.5504 20.4413 15.6196 20.4052 15.6803C20.3692 15.741 20.3175 15.7909 20.2556 15.8247L15.9195 18.1987C15.8615 18.2305 15.7964 18.2471 15.7303 18.2471C15.6641 18.2471 15.5991 18.2305 15.5411 18.1987L11.205 15.8247C11.1431 15.7909 11.0914 15.741 11.0553 15.6803C11.0193 15.6196 11.0002 15.5504 11 15.4798V10.7673C11.0002 10.6967 11.0193 10.6275 11.0553 10.5668C11.0914 10.5061 11.1431 10.4563 11.205 10.4224L15.5411 8.04838C15.5991 8.01664 15.6641 8 15.7303 8C15.7964 8 15.8615 8.01664 15.9195 8.04838Z" fill="white" stroke="black" stroke-width="0.8" stroke-linecap="round" stroke-linejoin="round"/>
<path d="M11.0345 10.6067L15.7303 13.1768L20.426 10.6067" fill="white"/>
<path d="M11.0345 10.6067L15.7303 13.1768L20.426 10.6067" stroke="black" stroke-width="0.8" stroke-linecap="round" stroke-linejoin="round"/>
<path d="M15.7303 13.1773V18.248" stroke="black" stroke-width="0.8" stroke-linecap="round" stroke-linejoin="round"/>
<text x="16" y="29" text-anchor="middle" fill="white" font-family="Arial, Helvetica, sans-serif" font-size="7.8" font-weight="600" letter-spacing="0.15">STEP</text>
</svg>
