<svg width="128" height="128" viewBox="0 0 128 128" fill="none" xmlns="http://www.w3.org/2000/svg">
<g clip-path="url(#clip0_15_279)">
<mask id="mask0_15_279" style="mask-type:alpha" maskUnits="userSpaceOnUse" x="0" y="0" width="129" height="129">
<path d="M128 3.12254e-05C111.5 -0.000144707 42.5 0.0004813 0.000244141 0.000456505C0 11.5004 0.000145137 120.501 0 128.001C10.5 128.001 52.5003 128.001 72.9998 128.001C66.1911 120.979 61.9998 111.553 61.9998 101C61.9998 79.4613 79.4607 62.0004 101 62.0004C111.553 62.0004 121.126 66.1916 128.148 73.0004C128.148 58.0004 128 21.5 128 3.12254e-05Z" fill="#FAFAFA"/>
</mask>
<g mask="url(#mask0_15_279)">
<rect x="4" y="4" width="98" height="98" stroke="#05093B" stroke-width="6" stroke-linejoin="round"/>
</g>
<path d="M88 101.728L100.728 101.728M100.728 101.728L113.456 101.728M100.728 101.728L100.728 114.455M100.728 101.728L100.728 88.9996" stroke="#05093B" stroke-width="5" stroke-linecap="round" stroke-linejoin="round"/>
<circle cx="101" cy="101" r="24" stroke="#05093B" stroke-width="5" stroke-linecap="round" stroke-linejoin="round"/>
</g>
<defs>
<clipPath id="clip0_15_279">
<rect width="128" height="128" fill="white"/>
</clipPath>
</defs>
</svg>
