<svg width="128" height="128" viewBox="0 0 128 128" fill="none" xmlns="http://www.w3.org/2000/svg">
<path d="M74.8492 29.882C74.5534 29.5839 74.2576 29.2857 73.9618 29.2857L9.47574 7.2236C8.88412 6.92547 8.29251 6.92547 7.40509 7.2236C7.10928 7.2236 6.81347 7.52174 6.81347 7.81988C6.51766 8.11801 6.22186 8.41615 6.22186 8.71429C5.92605 9.31056 5.92605 9.90683 6.22186 10.205L27.8158 75.4969C28.1116 76.0932 28.4074 76.6894 28.999 76.9876C29.5906 77.2857 30.1823 77.2857 31.0697 76.9876C31.3655 76.9876 31.6613 76.6894 31.9571 76.3913L44.0852 64.1677L58.5798 78.7764C58.8756 79.0745 59.4672 79.0745 59.763 78.7764L77.2157 61.1863C77.5115 60.8882 77.5115 60.2919 77.2157 59.9938L62.7211 45.3851L74.8492 33.4596C76.0324 32.5652 76.0324 30.7764 74.8492 29.882ZM57.6924 43.5963C57.1007 44.1925 56.8049 44.7888 56.8049 45.3851C56.8049 45.9814 57.1007 46.5776 57.3965 47.1739L70.7079 60.5901L70.1163 61.1863L59.1714 72.2174L58.5798 71.6211L44.6768 57.6087C44.381 57.3106 43.7894 57.3106 43.4936 57.6087L31.3655 69.8323L12.7296 13.4845L68.3414 32.5652L57.6924 43.5963Z" fill="#05093B"/>
<path d="M88 101.728L100.728 101.728M100.728 101.728L113.456 101.728M100.728 101.728L100.728 114.455M100.728 101.728L100.728 88.9996" stroke="#05093B" stroke-width="5" stroke-linecap="round" stroke-linejoin="round"/>
<circle cx="101" cy="101" r="24" stroke="#05093B" stroke-width="5" stroke-linecap="round" stroke-linejoin="round"/>
</svg>
