<svg width="128" height="128" viewBox="0 0 128 128" fill="none" xmlns="http://www.w3.org/2000/svg">
<path d="M123.443 76.882C123.147 76.5839 122.851 76.2857 122.556 76.2857L58.0695 54.2236C57.4779 53.9255 56.8863 53.9255 55.9988 54.2236C55.703 54.2236 55.4072 54.5217 55.4072 54.8199C55.1114 55.118 54.8156 55.4162 54.8156 55.7143C54.5198 56.3106 54.5198 56.9068 54.8156 57.205L76.4095 122.497C76.7054 123.093 77.0012 123.689 77.5928 123.988C78.1844 124.286 78.776 124.286 79.6634 123.988C79.9592 123.988 80.255 123.689 80.5509 123.391L92.679 111.168L107.174 125.776C107.469 126.075 108.061 126.075 108.357 125.776L125.809 108.186C126.105 107.888 126.105 107.292 125.809 106.994L111.315 92.3851L123.443 80.4596C124.626 79.5652 124.626 77.7764 123.443 76.882ZM106.286 90.5963C105.694 91.1925 105.399 91.7888 105.399 92.3851C105.399 92.9814 105.694 93.5776 105.99 94.1739L119.302 107.59L118.71 108.186L107.765 119.217L107.174 118.621L93.2706 104.609C92.9748 104.311 92.3832 104.311 92.0873 104.609L79.9592 116.832L61.3234 60.4845L116.935 79.5652L106.286 90.5963Z" fill="#05093B"/>
<path d="M50.5 88H21M88 52V21M21.5 12H79M12 21V79" stroke="#05093B" stroke-width="6" stroke-linejoin="round"/>
<rect x="3" y="3" width="18" height="18" stroke="#05093B" stroke-width="6" stroke-linejoin="round"/>
<rect x="79" y="3" width="18" height="18" stroke="#05093B" stroke-width="6" stroke-linejoin="round"/>
<rect x="3" y="79" width="18" height="18" stroke="#05093B" stroke-width="6" stroke-linejoin="round"/>
</svg>
