<svg width="129" height="128" viewBox="0 0 129 128" fill="none" xmlns="http://www.w3.org/2000/svg">
<path d="M105.187 86.5489L126.634 65.1017C127.624 64.1118 127.629 62.7971 126.647 61.815L105.367 40.5353C104.385 39.5532 103.071 39.5584 102.081 40.5482L101.751 40.8782C100.761 41.8681 100.756 43.1827 101.738 44.1649L116.961 59.388C117.452 59.8791 117.12 60.8664 116.462 60.8689L83.0206 60.8689C81.7059 60.8741 80.7161 61.864 80.7109 63.1786L80.7083 63.836C80.7032 65.1507 81.6853 66.1328 83 66.1276L116.442 66.1276C117.099 66.1251 117.589 66.9448 116.929 67.6047L101.586 82.9477C100.596 83.9376 100.591 85.2523 101.573 86.2344L101.9 86.5618C102.882 87.5439 104.197 87.5388 105.187 86.5489Z" fill="#05093B"/>
<path d="M24.0963 40.7363L2.64906 62.1835C1.65919 63.1734 1.65404 64.488 2.63618 65.4702L23.9158 86.7498C24.898 87.732 26.2126 87.7268 27.2025 86.7369L27.5325 86.407C28.5223 85.4171 28.5275 84.1024 27.5454 83.1203L12.3222 67.8972C11.8312 67.4061 12.1637 66.4188 12.821 66.4162L45.6858 66.4162C47.0004 66.4111 47.9903 65.4212 47.9955 64.1065L47.998 63.4492C48.0032 62.1345 47.0211 61.1524 45.7064 61.1575L12.8416 61.1575C12.1843 61.1601 11.6945 60.3404 12.3544 59.6804L27.6974 44.3374C28.6873 43.3476 28.6925 42.0329 27.7103 41.0508L27.383 40.7234C26.4008 39.7412 25.0861 39.7464 24.0963 40.7363Z" fill="#05093B"/>
<path d="M47 15V113M82 15V113" stroke="#05093B" stroke-width="4.99512" stroke-linecap="square" stroke-linejoin="round"/>
</svg>
