<svg width="128" height="128" viewBox="0 0 128 128" fill="none" xmlns="http://www.w3.org/2000/svg">
<path d="M24.8047 0C26.4486 0 27.7812 1.34315 27.7812 3C27.7812 4.55939 26.6008 5.8409 25.0913 5.98627L24.8047 6L5.95312 5.998V25C5.95312 26.6569 4.62047 28 2.97656 28C1.42935 28 0.15786 26.8102 0.0136259 25.2889L0 25V3C0 1.34315 1.33265 0 2.97656 0H24.8047Z" fill="#05093B"/>
<path d="M102.977 0C101.333 0 100 1.34315 100 3C100 4.55939 101.18 5.8409 102.69 5.98627L102.977 6L121.828 5.998V25C121.828 26.6569 123.161 28 124.805 28C126.352 28 127.623 26.8102 127.768 25.2889L127.781 25V3C127.781 1.34315 126.449 0 124.805 0H102.977Z" fill="#05093B"/>
<path d="M0 103C0 101.343 1.33265 100 2.97656 100C4.52377 100 5.79527 101.19 5.9395 102.711L5.95313 103L5.95114 122H24.8047C26.4486 122 27.7812 123.343 27.7812 125C27.7812 126.559 26.6008 127.841 25.0913 127.986L24.8047 128H2.97656C1.33265 128 0 126.657 0 125L0 103Z" fill="#05093B"/>
<path d="M127 103C127 101.343 125.667 100 124.023 100C122.476 100 121.205 101.19 121.061 102.711L121.047 103L121.049 122H102.195C100.551 122 99.2188 123.343 99.2188 125C99.2188 126.559 100.399 127.841 101.909 127.986L102.195 128H124.023C125.667 128 127 126.657 127 125V103Z" fill="#05093B"/>
<circle cx="64" cy="64" r="28" stroke="#05093B" stroke-width="6"/>
<path d="M64 110.5V92M64 36V17" stroke="#05093B" stroke-width="6" stroke-linecap="round"/>
<path d="M110.5 64H92M36 64H17" stroke="#05093B" stroke-width="6" stroke-linecap="round"/>
</svg>
