<?xml version="1.0" encoding="utf-8"?>
<svg viewBox="0 0 34 34" width="34" height="34" fill="none" xmlns="http://www.w3.org/2000/svg">
  <path d="M 13.183 1 C 6.459 1 1 6.503 1 13.281 C 1 18.563 4.313 23.063 8.96 24.795 C 9.086 24.849 9.231 24.83 9.338 24.743 C 9.445 24.657 9.495 24.518 9.469 24.382 C 9.443 24.247 9.345 24.137 9.214 24.097 C 4.85 22.471 1.738 18.25 1.738 13.281 C 1.738 6.905 6.858 1.744 13.183 1.744 C 19.508 1.744 24.628 6.905 24.628 13.281 C 24.628 19.657 19.508 24.818 13.183 24.818 C 13.05 24.816 12.926 24.887 12.859 25.003 C 12.792 25.118 12.792 25.262 12.859 25.378 C 12.926 25.494 13.05 25.564 13.183 25.562 C 16.414 25.562 19.354 24.296 21.536 22.225 L 32.115 32.889 C 32.259 33.035 32.492 33.037 32.638 32.893 C 32.784 32.749 32.788 32.514 32.646 32.366 L 22.055 21.69 C 24.107 19.491 25.366 16.535 25.366 13.281 C 25.366 6.503 19.907 1 13.183 1 Z" fill="#05093B" stroke="#05093B"/>
</svg>